<svg xmlns="http://www.w3.org/2000/svg" version="1.1" xmlns:xlink="http://www.w3.org/1999/xlink" width="1000" height="1000"><style>
    #light-icon {
      display: inline;
    }
    #dark-icon {
      display: none;
    }

    @media (prefers-color-scheme: dark) {
      #light-icon {
        display: none;
      }
      #dark-icon {
        display: inline;
      }
    }
  </style><g id="light-icon"><svg xmlns="http://www.w3.org/2000/svg" version="1.1" xmlns:xlink="http://www.w3.org/1999/xlink" width="1000" height="1000"><g><g transform="matrix(20.833333333333332,0,0,20.833333333333332,364.58333333333337,0)"><svg xmlns="http://www.w3.org/2000/svg" version="1.1" xmlns:xlink="http://www.w3.org/1999/xlink" width="13" height="48"><svg width="13" height="48" viewBox="0 0 13 48" fill="none" class="w-5 h-20" xmlns="http://www.w3.org/2000/svg"><path d="M11.9606 31.4311C11.9391 31.2382 12.0197 31.1985 11.7562 31.2329C11.3099 31.5897 10.729 31.7959 10.2101 32.0233C9.85243 32.047 9.90352 32.0285 10.0756 31.7589C10.5946 31.3968 11.654 30.3658 11.931 29.8213C12.6463 28.4176 12.337 24.6667 12.2241 22.9802C12.0144 19.8636 11.5196 16.747 11.0141 13.6701C10.7479 13.5934 10.6107 13.8789 10.479 13.9344C10.3338 13.9952 10.1886 14.019 10.0756 14.0666C10.046 13.6463 10.6215 13.411 10.6887 13.1573C10.7774 12.8189 10.8769 11.4496 10.3633 12.0417C10.0864 12.3616 9.86587 12.811 9.53782 13.144C9.45984 13.2234 9.18018 13.5062 9.13447 13.5406C8.9328 13.6939 8.73919 13.834 8.46222 13.8049C8.55096 13.5749 8.63701 13.4665 8.73112 13.2762C8.76339 13.2101 8.88977 13.2075 9.00002 12.8797C9.23665 12.8004 9.50555 12.1607 9.53782 11.9545C10.6134 10.4346 10.0649 8.92253 9.63462 7.30476C9.20707 5.70022 8.55096 3.71238 7.81418 2.22678C7.59368 1.7774 6.60952 -0.146995 6.04483 0.00896596C5.23545 0.233655 3.92054 3.38988 3.62475 4.22784C3.16493 5.53104 2.62714 6.88975 3.22409 8.25639C3.24291 8.53659 3.2698 8.84323 3.49299 9.04941C3.52525 9.18687 3.60592 9.25295 3.62744 9.31375C3.74575 9.6574 3.94205 9.90323 4.00927 10.2204C4.00927 10.2627 4.01734 10.3077 4.03078 10.3685C3.83987 10.3341 3.75113 10.1808 3.62744 10.1041C3.53332 10.0486 3.45265 9.90323 3.35854 9.83979C3.24829 9.58867 3.03317 9.46443 2.82074 9.31111L2.28563 8.65026C2.01943 9.78957 1.73977 10.913 1.6107 12.0814C1.23962 13.4375 1.0245 14.8675 0.822828 16.258C0.3173 19.7578 -0.330745 21.9492 1.8796 25.0182C1.94413 25.1081 1.89573 25.3751 2.1485 25.4147C2.12967 25.3301 2.11085 25.2376 2.09472 25.1425C2.11354 25.2323 2.12967 25.3249 2.1485 25.4147C2.23992 25.8139 2.63789 26.3346 2.95519 26.6043C3.13804 27.0774 3.33972 27.1065 3.62744 27.3973C3.71886 27.4898 3.80222 27.5718 3.89633 27.6616C3.94205 28.0872 3.82642 27.8599 3.49299 27.7938C3.28056 27.4422 2.86377 27.3576 2.55184 27.1329C2.41202 27.0325 2.21572 26.9215 2.1485 26.8686C1.35256 26.2527 0.728714 25.4359 0 24.7565V26.8025C0 26.8898 0.750226 28.1216 0.881986 28.3119C0.92501 28.3754 1.72633 29.2239 1.14282 28.9807C0.89812 28.8776 0.400658 28.1427 0 28.0581C0.0591576 30.8364 0.537796 35.6712 3.04393 37.4079C3.47685 37.7092 4.20288 38.0925 4.74605 37.9656C5.1252 37.8784 4.91815 35.8562 4.96924 35.4491C5.11444 34.4631 5.13864 33.5459 5.10369 32.544C5.21662 31.1166 5.17091 29.5517 5.23814 28.0555C5.2946 26.7814 5.32149 25.5073 5.37259 24.2278C5.42368 22.9088 5.4667 21.5924 5.50703 20.268C5.59039 17.4925 5.75173 14.738 5.77593 11.9492C5.99912 11.8118 5.91038 11.447 5.91307 11.2249C5.92383 10.2786 5.91038 9.32961 5.91307 8.38327C6.2223 7.30741 5.96147 6.06501 6.04752 4.95213L6.17928 6.08087C6.16046 6.20247 6.25726 6.22097 6.31642 6.27119C6.31911 7.17259 6.30297 8.07664 6.31642 8.98068C6.31911 9.20537 6.23037 9.56752 6.45356 9.70498C6.43742 10.7782 6.43742 11.8646 6.45356 12.9405C6.45624 13.1626 6.36751 13.5273 6.59069 13.6648C6.57187 16.4509 6.55574 19.7658 6.85959 22.5096L6.99404 26.3373C6.99942 26.4695 6.98866 26.6016 6.99404 26.7338C7.03707 27.9207 7.08547 29.1129 7.12849 30.2998C7.13387 30.4319 7.12311 30.5641 7.12849 30.6963L7.26832 32.4065C7.26832 32.4065 7.26563 32.4092 7.26294 32.4118L7.12849 30.6963C7.16883 31.7536 7.22529 32.811 7.26294 33.8657C7.27638 34.2596 7.24681 34.6587 7.26294 35.0552C7.28445 35.5601 7.2226 37.4977 7.41621 37.807C7.63133 38.1507 8.66659 37.5665 8.91935 37.4079C10.2827 36.5567 11.0006 34.9733 11.5626 33.5353L10.3553 33.9344C11.1082 33.3872 12.087 32.4356 11.9713 31.4258L11.9606 31.4311Z" fill="black"></path><path d="M6.71592 44.4341C6.79121 44.3469 6.96868 44.3759 6.98751 44.1063C7.00902 43.8076 6.65676 42.2665 6.71592 42.1898C6.73743 42.1634 6.95793 42.2982 6.99557 42.0022C7.06818 41.4655 7.00095 41.1563 6.71592 40.736C6.9149 40.387 6.91221 39.5914 6.85843 39.2107C6.81272 38.9014 6.61911 38.7402 6.57609 38.4336C6.4282 37.3973 6.81272 36.0783 6.44971 35.0606C6.44971 34.709 6.4524 34.3548 6.44971 34.0032C6.43358 32.2533 6.49273 30.5985 6.31526 28.8539L6.18081 25.1584C5.98183 25.1478 5.94418 25.6315 5.93074 25.7664C5.87964 26.221 5.92805 26.6836 5.9146 27.1383C5.9146 27.1832 5.9146 27.2255 5.9146 27.2705C5.65646 27.8652 5.7936 28.7058 5.78015 29.3825C5.7452 31.143 5.57579 32.8983 5.6457 34.6641C5.60268 35.8906 5.66453 37.133 5.6457 38.3595C5.6457 38.4917 5.64839 38.6239 5.6457 38.7561C5.23967 38.682 5.38487 38.9596 5.37681 39.2134C5.36067 39.6257 5.5489 40.9157 5.49243 40.9844C5.43596 41.0558 5.17513 40.9818 5.10253 41.3281C4.96539 41.9704 5.33647 42.063 5.37681 42.1898C5.58117 42.8375 4.94657 43.6305 5.37681 44.3019C5.48436 44.8729 5.0353 45.2377 5.1106 45.8087C5.15093 46.11 5.63226 47.0854 5.78015 47.4714C5.84469 47.6379 5.87696 47.8256 5.91729 48C6.45509 47.8705 6.23997 47.7542 6.31795 47.4714C6.4766 46.8951 7.05742 45.9488 7.10313 45.6606C7.14616 45.3989 6.90684 45.0606 6.78583 44.7434C6.7697 44.6482 6.74819 44.5451 6.71861 44.4367L6.71592 44.4341ZM6.20501 27.6855C6.18081 27.5189 6.15123 27.355 6.11628 27.1938C6.19694 27.2863 6.21039 27.474 6.20501 27.6855Z" fill="black"></path>system</svg></svg></g></g></svg></g><g id="dark-icon"><svg xmlns="http://www.w3.org/2000/svg" version="1.1" xmlns:xlink="http://www.w3.org/1999/xlink" width="1000" height="1000"><g><g transform="matrix(20.833333333333332,0,0,20.833333333333332,364.58333333333337,0)"><svg xmlns="http://www.w3.org/2000/svg" version="1.1" xmlns:xlink="http://www.w3.org/1999/xlink" width="13" height="48"><svg width="13" height="48" viewBox="0 0 13 48" fill="none" class="w-5 h-20" xmlns="http://www.w3.org/2000/svg"><path d="M11.9606 31.4311C11.9391 31.2382 12.0197 31.1985 11.7562 31.2329C11.3099 31.5897 10.729 31.7959 10.2101 32.0233C9.85243 32.047 9.90352 32.0285 10.0756 31.7589C10.5946 31.3968 11.654 30.3658 11.931 29.8213C12.6463 28.4176 12.337 24.6667 12.2241 22.9802C12.0144 19.8636 11.5196 16.747 11.0141 13.6701C10.7479 13.5934 10.6107 13.8789 10.479 13.9344C10.3338 13.9952 10.1886 14.019 10.0756 14.0666C10.046 13.6463 10.6215 13.411 10.6887 13.1573C10.7774 12.8189 10.8769 11.4496 10.3633 12.0417C10.0864 12.3616 9.86587 12.811 9.53782 13.144C9.45984 13.2234 9.18018 13.5062 9.13447 13.5406C8.9328 13.6939 8.73919 13.834 8.46222 13.8049C8.55096 13.5749 8.63701 13.4665 8.73112 13.2762C8.76339 13.2101 8.88977 13.2075 9.00002 12.8797C9.23665 12.8004 9.50555 12.1607 9.53782 11.9545C10.6134 10.4346 10.0649 8.92253 9.63462 7.30476C9.20707 5.70022 8.55096 3.71238 7.81418 2.22678C7.59368 1.7774 6.60952 -0.146995 6.04483 0.00896596C5.23545 0.233655 3.92054 3.38988 3.62475 4.22784C3.16493 5.53104 2.62714 6.88975 3.22409 8.25639C3.24291 8.53659 3.2698 8.84323 3.49299 9.04941C3.52525 9.18687 3.60592 9.25295 3.62744 9.31375C3.74575 9.6574 3.94205 9.90323 4.00927 10.2204C4.00927 10.2627 4.01734 10.3077 4.03078 10.3685C3.83987 10.3341 3.75113 10.1808 3.62744 10.1041C3.53332 10.0486 3.45265 9.90323 3.35854 9.83979C3.24829 9.58867 3.03317 9.46443 2.82074 9.31111L2.28563 8.65026C2.01943 9.78957 1.73977 10.913 1.6107 12.0814C1.23962 13.4375 1.0245 14.8675 0.822828 16.258C0.3173 19.7578 -0.330745 21.9492 1.8796 25.0182C1.94413 25.1081 1.89573 25.3751 2.1485 25.4147C2.12967 25.3301 2.11085 25.2376 2.09472 25.1425C2.11354 25.2323 2.12967 25.3249 2.1485 25.4147C2.23992 25.8139 2.63789 26.3346 2.95519 26.6043C3.13804 27.0774 3.33972 27.1065 3.62744 27.3973C3.71886 27.4898 3.80222 27.5718 3.89633 27.6616C3.94205 28.0872 3.82642 27.8599 3.49299 27.7938C3.28056 27.4422 2.86377 27.3576 2.55184 27.1329C2.41202 27.0325 2.21572 26.9215 2.1485 26.8686C1.35256 26.2527 0.728714 25.4359 0 24.7565V26.8025C0 26.8898 0.750226 28.1216 0.881986 28.3119C0.92501 28.3754 1.72633 29.2239 1.14282 28.9807C0.89812 28.8776 0.400658 28.1427 0 28.0581C0.0591576 30.8364 0.537796 35.6712 3.04393 37.4079C3.47685 37.7092 4.20288 38.0925 4.74605 37.9656C5.1252 37.8784 4.91815 35.8562 4.96924 35.4491C5.11444 34.4631 5.13864 33.5459 5.10369 32.544C5.21662 31.1166 5.17091 29.5517 5.23814 28.0555C5.2946 26.7814 5.32149 25.5073 5.37259 24.2278C5.42368 22.9088 5.4667 21.5924 5.50703 20.268C5.59039 17.4925 5.75173 14.738 5.77593 11.9492C5.99912 11.8118 5.91038 11.447 5.91307 11.2249C5.92383 10.2786 5.91038 9.32961 5.91307 8.38327C6.2223 7.30741 5.96147 6.06501 6.04752 4.95213L6.17928 6.08087C6.16046 6.20247 6.25726 6.22097 6.31642 6.27119C6.31911 7.17259 6.30297 8.07664 6.31642 8.98068C6.31911 9.20537 6.23037 9.56752 6.45356 9.70498C6.43742 10.7782 6.43742 11.8646 6.45356 12.9405C6.45624 13.1626 6.36751 13.5273 6.59069 13.6648C6.57187 16.4509 6.55574 19.7658 6.85959 22.5096L6.99404 26.3373C6.99942 26.4695 6.98866 26.6016 6.99404 26.7338C7.03707 27.9207 7.08547 29.1129 7.12849 30.2998C7.13387 30.4319 7.12311 30.5641 7.12849 30.6963L7.26832 32.4065C7.26832 32.4065 7.26563 32.4092 7.26294 32.4118L7.12849 30.6963C7.16883 31.7536 7.22529 32.811 7.26294 33.8657C7.27638 34.2596 7.24681 34.6587 7.26294 35.0552C7.28445 35.5601 7.2226 37.4977 7.41621 37.807C7.63133 38.1507 8.66659 37.5665 8.91935 37.4079C10.2827 36.5567 11.0006 34.9733 11.5626 33.5353L10.3553 33.9344C11.1082 33.3872 12.087 32.4356 11.9713 31.4258L11.9606 31.4311Z" fill="white"></path><path d="M6.71592 44.4341C6.79121 44.3469 6.96868 44.3759 6.98751 44.1063C7.00902 43.8076 6.65676 42.2665 6.71592 42.1898C6.73743 42.1634 6.95793 42.2982 6.99557 42.0022C7.06818 41.4655 7.00095 41.1563 6.71592 40.736C6.9149 40.387 6.91221 39.5914 6.85843 39.2107C6.81272 38.9014 6.61911 38.7402 6.57609 38.4336C6.4282 37.3973 6.81272 36.0783 6.44971 35.0606C6.44971 34.709 6.4524 34.3548 6.44971 34.0032C6.43358 32.2533 6.49273 30.5985 6.31526 28.8539L6.18081 25.1584C5.98183 25.1478 5.94418 25.6315 5.93074 25.7664C5.87964 26.221 5.92805 26.6836 5.9146 27.1383C5.9146 27.1832 5.9146 27.2255 5.9146 27.2705C5.65646 27.8652 5.7936 28.7058 5.78015 29.3825C5.7452 31.143 5.57579 32.8983 5.6457 34.6641C5.60268 35.8906 5.66453 37.133 5.6457 38.3595C5.6457 38.4917 5.64839 38.6239 5.6457 38.7561C5.23967 38.682 5.38487 38.9596 5.37681 39.2134C5.36067 39.6257 5.5489 40.9157 5.49243 40.9844C5.43596 41.0558 5.17513 40.9818 5.10253 41.3281C4.96539 41.9704 5.33647 42.063 5.37681 42.1898C5.58117 42.8375 4.94657 43.6305 5.37681 44.3019C5.48436 44.8729 5.0353 45.2377 5.1106 45.8087C5.15093 46.11 5.63226 47.0854 5.78015 47.4714C5.84469 47.6379 5.87696 47.8256 5.91729 48C6.45509 47.8705 6.23997 47.7542 6.31795 47.4714C6.4766 46.8951 7.05742 45.9488 7.10313 45.6606C7.14616 45.3989 6.90684 45.0606 6.78583 44.7434C6.7697 44.6482 6.74819 44.5451 6.71861 44.4367L6.71592 44.4341ZM6.20501 27.6855C6.18081 27.5189 6.15123 27.355 6.11628 27.1938C6.19694 27.2863 6.21039 27.474 6.20501 27.6855Z" fill="white"></path>system</svg></svg></g></g></svg></g></svg>